<svg id="main" viewBox="0 0 31 30" fill="none" xmlns="http://www.w3.org/2000/svg">
<path d="M27.6667 10.3375V5.2875C27.6667 3.3 26.8667 2.5 24.8792 2.5H19.8292C17.8417 2.5 17.0417 3.3 17.0417 5.2875V10.3375C17.0417 12.325 17.8417 13.125 19.8292 13.125H24.8792C26.8667 13.125 27.6667 12.325 27.6667 10.3375Z" stroke="#0059B2" stroke-width="1.5" stroke-linecap="round" stroke-linejoin="round"/>
<path d="M13.2917 10.65V4.975C13.2917 3.2125 12.4917 2.5 10.5042 2.5H5.45425C3.46675 2.5 2.66675 3.2125 2.66675 4.975V10.6375C2.66675 12.4125 3.46675 13.1125 5.45425 13.1125H10.5042C12.4917 13.125 13.2917 12.4125 13.2917 10.65Z" stroke="#0059B2" stroke-width="1.5" stroke-linecap="round" stroke-linejoin="round"/>
<path d="M13.2917 24.7125V19.6625C13.2917 17.675 12.4917 16.875 10.5042 16.875H5.45425C3.46675 16.875 2.66675 17.675 2.66675 19.6625V24.7125C2.66675 26.7 3.46675 27.5 5.45425 27.5H10.5042C12.4917 27.5 13.2917 26.7 13.2917 24.7125Z" stroke="#0059B2" stroke-width="1.5" stroke-linecap="round" stroke-linejoin="round"/>
<path d="M18.9167 19.375H26.4167" stroke="#0059B2" stroke-width="1.5" stroke-linecap="round"/>
<path d="M18.9167 24.375H26.4167" stroke="#0059B2" stroke-width="1.5" stroke-linecap="round"/>
</svg>
