<svg id="play" viewBox="0 0 25 24" fill="none" xmlns="http://www.w3.org/2000/svg">
<g clip-path="url(#clip0_8619_12802)">
<path d="M24.0055 6.23879C23.7288 5.21066 22.9182 4.40023 21.8903 4.12338C20.0122 3.60941 12.4998 3.60941 12.4998 3.60941C12.4998 3.60941 4.98753 3.60941 3.10943 4.10379C2.10125 4.38046 1.27087 5.21084 0.9942 6.23879C0.5 8.11671 0.5 12.0113 0.5 12.0113C0.5 12.0113 0.5 15.9256 0.9942 17.7839C1.27105 18.8119 2.08148 19.6225 3.10961 19.8993C5.00731 20.4133 12.5 20.4133 12.5 20.4133C12.5 20.4133 20.0122 20.4133 21.8903 19.9189C22.9184 19.6422 23.7288 18.8316 24.0057 17.8037C24.4999 15.9256 24.4999 12.0311 24.4999 12.0311C24.4999 12.0311 24.5197 8.11671 24.0055 6.23879Z" fill="white"/>
<path d="M10.1079 15.6093L16.3549 12.0113L10.1079 8.41333V15.6093Z" fill="#FF4747"/>
</g>
<defs>
<clipPath id="clip0_8619_12802">
<rect width="24" height="24" fill="white" transform="translate(0.5)"/>
</clipPath>
</defs>
</svg>
